<?xml version="1.0" encoding="UTF-8" standalone="no"?>
<svg
   xmlns:dc="http://purl.org/dc/elements/1.1/"
   xmlns:cc="http://creativecommons.org/ns#"
   xmlns:rdf="http://www.w3.org/1999/02/22-rdf-syntax-ns#"
   xmlns:svg="http://www.w3.org/2000/svg"
   xmlns="http://www.w3.org/2000/svg"
   xmlns:sodipodi="http://sodipodi.sourceforge.net/DTD/sodipodi-0.dtd"
   xmlns:inkscape="http://www.inkscape.org/namespaces/inkscape"
   width="40"
   height="40"
   viewBox="0 0 40 40"
   version="1.1"
   id="svg2"
   inkscape:version="0.47 r22583"
   sodipodi:docname="aboutme.svg">
  <metadata
     id="metadata17">
    <rdf:RDF>
      <cc:Work
         rdf:about="">
        <dc:format>image/svg+xml</dc:format>
        <dc:type
           rdf:resource="http://purl.org/dc/dcmitype/StillImage" />
        <dc:title>me-badge</dc:title>
      </cc:Work>
    </rdf:RDF>
  </metadata>
  <sodipodi:namedview
     pagecolor="#ffffff"
     bordercolor="#666666"
     borderopacity="1"
     objecttolerance="10"
     gridtolerance="10"
     guidetolerance="10"
     inkscape:pageopacity="0"
     inkscape:pageshadow="2"
     inkscape:window-width="1920"
     inkscape:window-height="1124"
     id="namedview15"
     showgrid="false"
     inkscape:zoom="1.4842767"
     inkscape:cx="-6.050942"
     inkscape:cy="76.506435"
     inkscape:window-x="0"
     inkscape:window-y="25"
     inkscape:window-maximized="1"
     inkscape:current-layer="svg2" />
  <!-- Generator: Sketch 40.3 (33839) - http://www.bohemiancoding.com/sketch -->
  <title
     id="title4">me-badge</title>
  <desc
     id="desc6">Created with Sketch.</desc>
  <defs
     id="defs8">
    <inkscape:perspective
       sodipodi:type="inkscape:persp3d"
       inkscape:vp_x="0 : 79.5 : 1"
       inkscape:vp_y="0 : 1000 : 0"
       inkscape:vp_z="158 : 79.5 : 1"
       inkscape:persp3d-origin="79 : 53 : 1"
       id="perspective19" />
  </defs>
  <g
     id="Page-1"
     transform="matrix(0.25316456,0,0,0.25316456,-0.04078743,-0.17755698)"
     style="fill:none;stroke:none">
    <g
       id="Badge"
       transform="translate(-1,0)">
      <g
         id="me-badge"
         transform="translate(0.261719,0.373027)">
        <rect
           id="Rectangle"
           x="0.89939135"
           y="0.32832307"
           width="158"
           height="158"
           rx="5"
           style="fill:#00a98f" />
        <path
           d="m 77.365388,96.708939 0,-22.856941 c 0,-3.745786 -1.681782,-6.344903 -5.809791,-6.344903 -3.440008,0 -6.574237,2.293338 -8.10313,4.663121 l 0,24.538723 -7.644462,0 0,-22.856941 c 0,-3.745786 -1.605337,-6.344903 -5.733346,-6.344903 -3.440008,0 -6.497793,2.369783 -8.10313,4.663121 l 0,24.538723 -7.644462,0 0,-35.011636 7.644462,0 0,4.739567 c 1.528892,-2.140449 6.11557,-5.580457 11.466693,-5.580457 5.198234,0 8.408908,2.599117 9.555578,6.344903 1.98756,-3.134229 6.574237,-6.344903 11.92536,-6.344903 6.344904,0 10.09069,3.516452 10.09069,10.549357 l 0,25.303169 -7.644462,0 z M 89.214304,79.126677 c 0,-10.167135 7.415128,-18.346709 17.735156,-18.346709 10.54935,0 17.20004,7.950241 17.20004,18.958266 l 0,1.911115 -26.984955,0 c 0.611557,5.198234 4.510235,9.632023 11.084475,9.632023 3.51645,0 7.49157,-1.376004 10.01424,-3.898676 l 3.51645,4.9689 c -3.51645,3.363563 -8.71468,5.12179 -14.2187,5.12179 C 97.011655,97.54983 89.214304,90.211147 89.214304,79.126677 z m 17.735156,-12.07825 c -6.42135,0 -9.479137,4.9689 -9.784915,9.173354 l 19.722715,0 c -0.22934,-4.128009 -3.05779,-9.173354 -9.9378,-9.173354 z"
           id="Combined-Shape"
           style="fill:#ffffff" />
      </g>
    </g>
  </g>
</svg>
